<mxfile host="app.diagrams.net" modified="2022-12-09T07:21:35.972Z" agent="5.0 (Windows NT 10.0; Win64; x64) AppleWebKit/537.36 (KHTML, like Gecko) Chrome/108.0.0.0 Safari/537.36 Edg/108.0.1462.42" version="20.6.2" etag="PoIfT8L8L9j9edpUjx2V" type="github">
  <diagram id="1JszpzKx4Nlch1pfEvc2" name="Page-1">
    <mxGraphModel dx="821" dy="482" grid="1" gridSize="10" guides="1" tooltips="1" connect="1" arrows="1" fold="1" page="1" pageScale="1" pageWidth="850" pageHeight="1100" math="0" shadow="0">
      <root>
        <mxCell id="0" />
        <mxCell id="1" parent="0" />
        <mxCell id="x7HF9Xr3tOMW_H2zMtuC-1" value="" style="rounded=1;whiteSpace=wrap;html=1;" vertex="1" parent="1">
          <mxGeometry x="80" y="80" width="420" height="240" as="geometry" />
        </mxCell>
        <mxCell id="x7HF9Xr3tOMW_H2zMtuC-2" value="Node" style="text;html=1;strokeColor=none;fillColor=none;align=center;verticalAlign=middle;whiteSpace=wrap;rounded=0;" vertex="1" parent="1">
          <mxGeometry x="250" y="50" width="100" height="30" as="geometry" />
        </mxCell>
        <mxCell id="x7HF9Xr3tOMW_H2zMtuC-5" value="" style="rounded=1;whiteSpace=wrap;html=1;" vertex="1" parent="1">
          <mxGeometry x="100" y="110" width="380" height="190" as="geometry" />
        </mxCell>
        <mxCell id="x7HF9Xr3tOMW_H2zMtuC-34" style="edgeStyle=orthogonalEdgeStyle;rounded=0;orthogonalLoop=1;jettySize=auto;html=1;entryX=0;entryY=0.5;entryDx=0;entryDy=0;" edge="1" parent="1" source="x7HF9Xr3tOMW_H2zMtuC-4" target="x7HF9Xr3tOMW_H2zMtuC-9">
          <mxGeometry relative="1" as="geometry">
            <Array as="points">
              <mxPoint x="190" y="200" />
            </Array>
          </mxGeometry>
        </mxCell>
        <mxCell id="x7HF9Xr3tOMW_H2zMtuC-4" value="Reconcile module" style="rounded=0;whiteSpace=wrap;html=1;" vertex="1" parent="1">
          <mxGeometry x="130" y="220" width="120" height="60" as="geometry" />
        </mxCell>
        <mxCell id="x7HF9Xr3tOMW_H2zMtuC-28" style="edgeStyle=orthogonalEdgeStyle;rounded=0;orthogonalLoop=1;jettySize=auto;html=1;" edge="1" parent="1" source="x7HF9Xr3tOMW_H2zMtuC-3" target="x7HF9Xr3tOMW_H2zMtuC-9">
          <mxGeometry relative="1" as="geometry">
            <Array as="points">
              <mxPoint x="190" y="200" />
            </Array>
          </mxGeometry>
        </mxCell>
        <mxCell id="x7HF9Xr3tOMW_H2zMtuC-3" value="Report Generation module" style="rounded=0;whiteSpace=wrap;html=1;" vertex="1" parent="1">
          <mxGeometry x="130" y="130" width="120" height="60" as="geometry" />
        </mxCell>
        <mxCell id="x7HF9Xr3tOMW_H2zMtuC-7" value="Node Server" style="text;html=1;strokeColor=none;fillColor=none;align=center;verticalAlign=middle;whiteSpace=wrap;rounded=0;" vertex="1" parent="1">
          <mxGeometry x="182.5" y="80" width="85" height="30" as="geometry" />
        </mxCell>
        <mxCell id="x7HF9Xr3tOMW_H2zMtuC-37" style="edgeStyle=orthogonalEdgeStyle;rounded=0;orthogonalLoop=1;jettySize=auto;html=1;entryX=1;entryY=0.75;entryDx=0;entryDy=0;" edge="1" parent="1" source="x7HF9Xr3tOMW_H2zMtuC-9" target="x7HF9Xr3tOMW_H2zMtuC-4">
          <mxGeometry relative="1" as="geometry">
            <Array as="points">
              <mxPoint x="390" y="265" />
            </Array>
          </mxGeometry>
        </mxCell>
        <mxCell id="x7HF9Xr3tOMW_H2zMtuC-40" style="edgeStyle=orthogonalEdgeStyle;rounded=0;orthogonalLoop=1;jettySize=auto;html=1;entryX=1;entryY=0.5;entryDx=0;entryDy=0;exitX=0.5;exitY=0;exitDx=0;exitDy=0;" edge="1" parent="1" source="x7HF9Xr3tOMW_H2zMtuC-9" target="x7HF9Xr3tOMW_H2zMtuC-3">
          <mxGeometry relative="1" as="geometry">
            <Array as="points">
              <mxPoint x="390" y="160" />
            </Array>
          </mxGeometry>
        </mxCell>
        <mxCell id="x7HF9Xr3tOMW_H2zMtuC-44" style="edgeStyle=orthogonalEdgeStyle;rounded=0;orthogonalLoop=1;jettySize=auto;html=1;exitX=1;exitY=0.25;exitDx=0;exitDy=0;entryX=0;entryY=0.5;entryDx=0;entryDy=0;" edge="1" parent="1" source="x7HF9Xr3tOMW_H2zMtuC-9" target="x7HF9Xr3tOMW_H2zMtuC-14">
          <mxGeometry relative="1" as="geometry" />
        </mxCell>
        <mxCell id="x7HF9Xr3tOMW_H2zMtuC-9" value="Express module" style="rounded=0;whiteSpace=wrap;html=1;" vertex="1" parent="1">
          <mxGeometry x="330" y="170" width="120" height="60" as="geometry" />
        </mxCell>
        <mxCell id="x7HF9Xr3tOMW_H2zMtuC-48" style="edgeStyle=orthogonalEdgeStyle;rounded=0;orthogonalLoop=1;jettySize=auto;html=1;exitX=0;exitY=0.5;exitDx=0;exitDy=0;entryX=1;entryY=0.5;entryDx=0;entryDy=0;" edge="1" parent="1" source="x7HF9Xr3tOMW_H2zMtuC-10" target="x7HF9Xr3tOMW_H2zMtuC-14">
          <mxGeometry relative="1" as="geometry" />
        </mxCell>
        <mxCell id="x7HF9Xr3tOMW_H2zMtuC-10" value="" style="rounded=1;whiteSpace=wrap;html=1;" vertex="1" parent="1">
          <mxGeometry x="810" y="120" width="180" height="160" as="geometry" />
        </mxCell>
        <mxCell id="x7HF9Xr3tOMW_H2zMtuC-11" value="T24 environment" style="text;html=1;strokeColor=none;fillColor=none;align=center;verticalAlign=middle;whiteSpace=wrap;rounded=0;" vertex="1" parent="1">
          <mxGeometry x="857.5" y="80" width="85" height="30" as="geometry" />
        </mxCell>
        <mxCell id="x7HF9Xr3tOMW_H2zMtuC-12" value="Conciliar.war file in the deployments folder&amp;nbsp;" style="rounded=1;whiteSpace=wrap;html=1;" vertex="1" parent="1">
          <mxGeometry x="840" y="170" width="130" height="70" as="geometry" />
        </mxCell>
        <mxCell id="x7HF9Xr3tOMW_H2zMtuC-13" value="JBoss server" style="text;html=1;strokeColor=none;fillColor=none;align=center;verticalAlign=middle;whiteSpace=wrap;rounded=0;" vertex="1" parent="1">
          <mxGeometry x="865" y="140" width="70" height="30" as="geometry" />
        </mxCell>
        <mxCell id="x7HF9Xr3tOMW_H2zMtuC-41" style="edgeStyle=orthogonalEdgeStyle;rounded=0;orthogonalLoop=1;jettySize=auto;html=1;entryX=1;entryY=0.5;entryDx=0;entryDy=0;" edge="1" parent="1" source="x7HF9Xr3tOMW_H2zMtuC-14" target="x7HF9Xr3tOMW_H2zMtuC-9">
          <mxGeometry relative="1" as="geometry">
            <Array as="points">
              <mxPoint x="560" y="200" />
              <mxPoint x="560" y="200" />
            </Array>
          </mxGeometry>
        </mxCell>
        <mxCell id="x7HF9Xr3tOMW_H2zMtuC-14" value="To access the tool in the localhost" style="rounded=1;whiteSpace=wrap;html=1;" vertex="1" parent="1">
          <mxGeometry x="590" y="160" width="130" height="60" as="geometry" />
        </mxCell>
        <mxCell id="x7HF9Xr3tOMW_H2zMtuC-15" value="Browser" style="text;html=1;strokeColor=none;fillColor=none;align=center;verticalAlign=middle;whiteSpace=wrap;rounded=0;" vertex="1" parent="1">
          <mxGeometry x="620" y="130" width="60" height="30" as="geometry" />
        </mxCell>
        <mxCell id="x7HF9Xr3tOMW_H2zMtuC-43" style="edgeStyle=orthogonalEdgeStyle;rounded=0;orthogonalLoop=1;jettySize=auto;html=1;exitX=0.5;exitY=1;exitDx=0;exitDy=0;" edge="1" parent="1" source="x7HF9Xr3tOMW_H2zMtuC-14" target="x7HF9Xr3tOMW_H2zMtuC-14">
          <mxGeometry relative="1" as="geometry" />
        </mxCell>
        <mxCell id="x7HF9Xr3tOMW_H2zMtuC-45" value="API calls" style="text;html=1;strokeColor=none;fillColor=none;align=center;verticalAlign=middle;whiteSpace=wrap;rounded=0;" vertex="1" parent="1">
          <mxGeometry x="520" y="210" width="60" height="30" as="geometry" />
        </mxCell>
        <mxCell id="x7HF9Xr3tOMW_H2zMtuC-46" value="Response" style="text;html=1;strokeColor=none;fillColor=none;align=center;verticalAlign=middle;whiteSpace=wrap;rounded=0;" vertex="1" parent="1">
          <mxGeometry x="520" y="150" width="60" height="30" as="geometry" />
        </mxCell>
        <mxCell id="x7HF9Xr3tOMW_H2zMtuC-47" value="Local host&amp;nbsp;" style="text;html=1;strokeColor=none;fillColor=none;align=center;verticalAlign=middle;whiteSpace=wrap;rounded=0;" vertex="1" parent="1">
          <mxGeometry x="740" y="160" width="60" height="30" as="geometry" />
        </mxCell>
        <mxCell id="x7HF9Xr3tOMW_H2zMtuC-49" value="after starting JBoss" style="text;html=1;strokeColor=none;fillColor=none;align=center;verticalAlign=middle;whiteSpace=wrap;rounded=0;" vertex="1" parent="1">
          <mxGeometry x="730" y="210" width="70" height="30" as="geometry" />
        </mxCell>
      </root>
    </mxGraphModel>
  </diagram>
</mxfile>
